<?xml version="1.0" encoding="UTF-8"?>
<svg width="21.5px" height="21.5px" viewBox="0 0 21.5 21.5" version="1.1" xmlns="http://www.w3.org/2000/svg" xmlns:xlink="http://www.w3.org/1999/xlink">
    <title>icon/说明</title>
    <g id="正式的" stroke="none" stroke-width="1" fill="none" fill-rule="evenodd">
        <g id="营销工具管理-新增网页搭建暂无数据" transform="translate(-1309.250000, -283.250000)">
            <g id="矩形" transform="translate(240.000000, 118.000000)">
                <g id="编组-15" transform="translate(16.000000, 16.000000)">
                    <g id="编组-18" transform="translate(450.000000, 144.000000)">
                        <g id="编组-22备份" transform="translate(156.000000, 0.000000)">
                            <g id="icon/说明" transform="translate(448.000000, 6.000000)">
                                <path d="M10,20 C12.7614,20 15.2614,18.8807 17.07105,17.07105 C18.8807,15.2614 20,12.7614 20,10 C20,7.2386 18.8807,4.7386 17.07105,2.92893 C15.2614,1.11929 12.7614,0 10,0 C7.2386,0 4.7386,1.11929 2.92893,2.92893 C1.11929,4.7386 0,7.2386 0,10 C0,12.7614 1.11929,15.2614 2.92893,17.07105 C4.7386,18.8807 7.2386,20 10,20 Z" id="路径" stroke="#333333" stroke-width="1.5" stroke-linejoin="round"></path>
                                <path d="M10,12.3124 L10,10.3124 C11.65685,10.3124 13,8.96925 13,7.3124 C13,5.65555 11.65685,4.3124 10,4.3124 C8.34315,4.3124 7,5.65555 7,7.3124" id="路径" stroke="#333333" stroke-width="1.5" stroke-linecap="round" stroke-linejoin="round"></path>
                                <path d="M10,16.8124 C10.69035,16.8124 11.25,16.25275 11.25,15.5624 C11.25,14.87205 10.69035,14.3124 10,14.3124 C9.30965,14.3124 8.75,14.87205 8.75,15.5624 C8.75,16.25275 9.30965,16.8124 10,16.8124 Z" id="路径" fill="#333333"></path>
                            </g>
                        </g>
                    </g>
                </g>
            </g>
        </g>
    </g>
</svg>