<?xml version="1.0" encoding="UTF-8"?>
<svg width="10px" height="12px" viewBox="0 0 10 12" version="1.1" xmlns="http://www.w3.org/2000/svg" xmlns:xlink="http://www.w3.org/1999/xlink">
    <title>形状备份</title>
    <g id="正式的" stroke="none" stroke-width="1" fill="none" fill-rule="evenodd">
        <g id="营销工具管理-新增网页搭建暂无数据" transform="translate(-623.000000, -211.500000)" fill="#999999" fill-rule="nonzero">
            <g id="矩形" transform="translate(240.000000, 118.000000)">
                <g id="编组-15" transform="translate(16.000000, 16.000000)">
                    <g id="编组-19备份-7" transform="translate(16.000000, 16.000000)">
                        <path d="M358.654515,63.2077464 C359.151156,63.2861446 359.667573,63.185697 360.073016,63.2628702 C360.728977,63.3878173 361.061902,64.0101028 360.990482,64.9263815 L360.196078,64.9263815 C360.174102,66.5519188 360.183991,68.1615314 360.183991,69.7931935 C360.183991,70.6163744 360.245522,71.4812043 360.171905,72.2198621 C360.102683,72.916871 359.643401,73.3419361 359.084131,73.4460587 C358.531454,73.5489563 357.79858,73.473008 357.188768,73.473008 C355.909809,73.473008 354.61437,73.5011824 353.361782,73.473008 C352.751969,73.4595334 352.301477,73.2439384 352.028984,72.8323479 C351.756491,72.4207575 351.78396,71.7984719 351.78396,71.0598141 L351.78396,64.9263815 L351.025815,64.9263815 C350.902754,64.0836011 351.230185,63.4772402 351.78396,63.2775698 C352.191601,63.1305732 352.734389,63.2493955 353.312337,63.2089714 C353.265091,62.3012675 353.31014,61.6128335 354.008952,61.5185107 C354.322099,61.4768616 354.739628,61.5185107 355.121997,61.5185107 L357.346989,61.5185107 C357.771111,61.5185107 358.205122,61.4731867 358.422677,61.6826569 C358.722639,61.9705252 358.644627,62.6381347 358.654515,63.2077464 Z M354.125575,62.6251459 L354.125575,63.3181818 L357.875,63.3181818 L357.875,62.5909091 L354.137417,62.5909091 C354.123422,62.592984 354.124499,62.6085462 354.125575,62.6251459 Z M353.207799,65.1769741 L353.207799,70.3948004 C353.207799,70.8402846 353.099742,71.7903228 353.382252,71.9835301 C353.494215,72.0598285 353.784536,72.0721347 353.918631,71.9835301 C354.210254,71.7915534 354.107405,70.8685889 354.107405,70.4083372 L354.107405,65.1363636 L353.223422,65.1363636 C353.205195,65.1375943 353.206497,65.1572842 353.207799,65.1769741 L353.207799,65.1769741 Z M355.402444,65.1782364 L355.402444,70.2349877 C355.402444,70.6340105 355.306133,71.5786106 355.474356,71.8520151 C355.584793,72.0330532 355.959764,72.1143356 356.145965,71.9751703 C356.398942,71.7855113 356.288505,70.7854913 356.288505,70.3716899 L356.288505,65.1363636 L355.41657,65.1363636 C355.399876,65.1388267 355.40116,65.1585316 355.402444,65.1782364 Z M357.890506,64.813529 L357.890506,70.1239332 C357.890506,70.6679559 357.780564,71.5025363 358.146185,71.6509062 C358.305984,71.7164362 358.58851,71.6657432 358.658822,71.6101045 C358.897882,71.4196965 358.786661,70.4008902 358.786661,70.0002916 L358.786661,64.7727273 L357.904568,64.7727273 C357.887949,64.7739637 357.889227,64.7937463 357.890506,64.813529 Z" id="形状备份"></path>
                    </g>
                </g>
            </g>
        </g>
    </g>
</svg>